<svg id="Capa_1" enable-background="new 0 0 512 512" height="512" viewBox="0 0 512 512" width="512" xmlns="http://www.w3.org/2000/svg"><g id="XMLID_849_"><g id="XMLID_515_"><path id="XMLID_529_" d="m397.552 412.926c-2.299-23.65-13.512-45.678-31.565-61.475-27.976-24.479-44.995-58.941-47.619-95.752h8.299c5.523 0 10-4.477 10-10s-4.477-10-10-10h-8.667v-31.699c20.953 0 38-17.047 38-38s-17.047-38-38-38h-11.48c14.434-13.513 23.48-32.715 23.48-54 0-40.804-33.196-74-74-74s-74 33.196-74 74c0 21.285 9.046 40.487 23.48 54h-11.48c-20.953 0-38 17.047-38 38s17.047 38 38 38v31.699h-8.667c-5.523 0-10 4.477-10 10s4.477 10 10 10h8.299c-2.624 36.812-19.644 71.273-47.62 95.752-18.053 15.797-29.266 37.825-31.565 61.475-23.014 4.472-40.447 24.771-40.447 49.074v40c0 5.522 4.477 10 10 10h344c5.523 0 10-4.478 10-10v-40c0-24.303-17.433-44.602-40.448-49.074zm-195.552-338.926c0-29.776 24.224-54 54-54s54 24.224 54 54-24.224 54-54 54-54-24.224-54-54zm-26 92c0-9.925 8.075-18 18-18h124c9.925 0 18 8.075 18 18s-8.075 18-18 18h-124c-9.925 0-18-8.075-18-18zm38 38h84v31.699h-84zm204 288h-324v-30c0-16.542 13.458-30 30-30h87.127c5.523 0 10-4.478 10-10s-4.477-10-10-10h-76.42c2.397-17.512 11.006-33.712 24.476-45.498 32.318-28.278 51.837-68.219 54.493-110.803h84.647c2.656 42.585 22.175 82.526 54.494 110.803 13.469 11.786 22.078 27.986 24.476 45.498h-76.167c-5.523 0-10 4.478-10 10s4.477 10 10 10h86.874c16.542 0 30 13.458 30 30z"/><path id="XMLID_533_" d="m256 412c-2.63 0-5.21 1.069-7.07 2.93-1.86 1.86-2.93 4.44-2.93 7.07s1.07 5.21 2.93 7.069c1.86 1.86 4.44 2.931 7.07 2.931s5.21-1.07 7.07-2.931c1.86-1.859 2.93-4.439 2.93-7.069s-1.07-5.21-2.93-7.07-4.44-2.93-7.07-2.93z"/></g></g></svg>