<svg id="Capa_1" enable-background="new 0 0 512 512" height="512" viewBox="0 0 512 512" width="512" xmlns="http://www.w3.org/2000/svg"><g id="XMLID_2718_"><g id="XMLID_303_"><path id="XMLID_309_" d="m443.805 243.242-32.466-87.281c-.268-16.939-4.241-33.675-11.576-48.916 15.312-12.232 25.15-31.044 25.15-52.121v-44.924c0-5.523-4.477-10-10-10h-193.993c-2.28 0-4.375.772-6.057 2.056-18.649 3.495-36.34 11.439-51.392 23.12-15.907 12.344-28.554 28.59-36.574 46.98-2.208 5.063.106 10.956 5.168 13.164 1.302.568 2.658.836 3.993.836 3.856 0 7.531-2.244 9.171-6.005 12.14-27.836 36.727-48.787 65.691-56.676v107.982c-21.548 12.95-36 36.55-36 63.469v30.009c0 4.462-2.4 8.282-6.42 10.217-4.02 1.938-8.502 1.432-11.991-1.352-12.444-9.924-19.582-24.746-19.582-40.663v-27.995c0-5.523-4.477-10-10-10s-10 4.477-10 10v27.995c0 22.038 9.882 42.558 27.111 56.299 4.188 3.341 9.001 5.474 14.009 6.377 2.624 11.269 1.299 23.284-3.875 33.755-.007.015-.012.03-.019.045s-.016.028-.024.043l-24.675 51.18c-39.625 33.594-62.317 82.485-62.317 134.523v26.641c0 5.523 4.477 10 10 10s10-4.477 10-10v-26.64c0-44.587 18.79-86.568 51.762-116.222l162.944 86.775c1.461.778 3.077 1.173 4.701 1.173 1.045 0 2.095-.164 3.108-.496 2.586-.846 4.717-2.71 5.899-5.162l6.685-13.867c15.807 21.504 24.401 47.496 24.401 74.438 0 5.523 4.477 10 10 10s10-4.477 10-10c0-34.725-12.313-68.091-34.751-94.452l9.259-19.205c2.331-4.834.43-10.646-4.307-13.169l-26.869-14.309 6.596-17.275c1.939-5.079 6.895-8.492 12.332-8.492h28.022c17.941 0 33.87-9.896 41.915-25.332 1.25.149 2.518.234 3.807.234 17.645 0 32-14.355 32-32 0-4.436-.909-8.664-2.548-12.508 3.914-.982 7.399-3.349 9.753-6.736 3.153-4.535 3.885-10.335 1.959-15.513zm-52.451-85.442c0 1.19.212 2.371.627 3.486l31.511 84.714s-20.178 0-20.852 0c-14.153 0-26.182 9.239-30.391 22h-33.364c-15.382 0-29.701-7.76-38.213-20.249 13.716-13.44 22.248-32.151 22.248-52.825 0-26.918-14.452-50.519-36-63.469v-9.833h71.293c8.519 0 16.662-1.623 24.159-4.547 5.886 12.73 8.982 26.66 8.982 40.723zm13.559-102.876c0 25.75-20.95 46.7-46.7 46.7h-71.293v-81.624h117.993zm-173.993-34.924h36v103.151c-5.765-1.446-11.793-2.225-18-2.225s-12.235.778-18 2.225zm18 120.926c29.776 0 54 24.224 54 54s-24.224 54-54 54-54-24.224-54-54 24.224-54 54-54zm53.136 282.441-151.333-80.591 16.901-35.056 151.333 80.591zm54.862-108.269h-28.022c-13.675 0-26.139 8.583-31.016 21.358l-5.702 14.934-116.397-61.986c3.893-11.786 4.615-24.46 2.081-36.592 5.526-2.826 9.941-7.087 12.893-12.219 13.561 17.234 34.584 28.334 58.164 28.334 12.943 0 25.115-3.35 35.711-9.214 12.254 17.469 32.514 28.287 54.255 28.287h33.364c1.683 5.102 4.615 9.637 8.435 13.247-4.767 8.462-13.714 13.851-23.766 13.851zm45.723-25.098c-6.617 0-12-5.383-12-12s5.383-12 12-12 12 5.383 12 12-5.384 12-12 12z"/><path id="XMLID_308_" d="m248.137 468.5c-5.523 0-10 4.477-10 10v23.5c0 5.523 4.477 10 10 10s10-4.477 10-10v-23.5c0-5.523-4.477-10-10-10z"/><path id="XMLID_305_" d="m248.92 226.926c17.645 0 32-14.355 32-32s-14.355-32-32-32-32 14.355-32 32 14.355 32 32 32zm0-44c6.617 0 12 5.383 12 12s-5.383 12-12 12-12-5.383-12-12 5.383-12 12-12z"/><path id="XMLID_304_" d="m126.923 130.14c2.64 0 5.21-1.06 7.07-2.93 1.87-1.86 2.93-4.43 2.93-7.07 0-2.63-1.06-5.21-2.93-7.07-1.86-1.86-4.43-2.93-7.07-2.93-2.63 0-5.2 1.07-7.07 2.93-1.86 1.86-2.93 4.44-2.93 7.07 0 2.64 1.07 5.21 2.93 7.07 1.86 1.87 4.441 2.93 7.07 2.93z"/></g></g></svg>