<svg id="Capa_1" enable-background="new 0 0 512.001 512.001" height="512" viewBox="0 0 512.001 512.001" width="512" xmlns="http://www.w3.org/2000/svg"><g id="XMLID_2471_"><g id="XMLID_90_"><path id="XMLID_582_" d="m488.266 461.026c-4.926-20.427-2.319-42.375 7.34-61.804 10.799-21.725 16.768-47.376 16.377-70.378-.836-49.213-30.755-92.911-76.222-111.325-5.121-2.076-10.95.396-13.022 5.515-2.073 5.119.396 10.949 5.515 13.022 38.017 15.397 63.032 51.952 63.731 93.127.339 19.903-4.869 42.187-14.288 61.136-11.748 23.63-14.899 50.405-8.874 75.394l6.339 26.287h-96.127l-8.485-29.621c-1.229-4.29-5.151-7.246-9.613-7.246h-33.133c-15.532 0-28.168-12.636-28.168-28.168v-26.891c0-5.522-4.478-10-10-10h-20.103l17.252-56.17c.292-.951.44-1.94.44-2.936 0-40.355 23.815-77.07 60.674-93.535 5.042-2.252 7.304-8.167 5.052-13.209s-8.164-7.306-13.21-5.052c-43.584 19.469-71.909 62.635-72.506 110.264l-11.234 36.577-11.234-36.576c-.811-66.774-54.567-120.841-120.528-120.841-32.825 0-63.717 12.307-86.986 34.654-23.455 22.527-36.679 52.924-37.234 85.593-.391 23.002 5.578 48.653 16.377 70.378h.001c9.658 19.429 12.265 41.377 7.339 61.804l-9.315 38.631c-.718 2.979-.03 6.123 1.865 8.531 1.896 2.407 4.792 3.813 7.856 3.813h116.363c4.462 0 8.385-2.956 9.613-7.246l8.485-29.621h25.595c26.56 0 48.168-21.608 48.168-48.168v-16.891h47.27v16.891c0 26.56 21.608 48.168 48.168 48.168h25.595l8.485 29.621c1.229 4.29 5.151 7.246 9.613 7.246h116.363c3.064 0 5.96-1.405 7.856-3.813s2.583-5.553 1.865-8.531zm-265.9-70.951c-5.522 0-10 4.478-10 10v26.891c0 15.532-12.636 28.168-28.168 28.168h-33.133c-4.462 0-8.385 2.956-9.613 7.246l-8.486 29.62h-96.127l6.339-26.287c6.025-24.988 2.874-51.764-8.873-75.394-9.42-18.949-14.628-41.232-14.289-61.136.958-56.404 46.738-100.587 104.223-100.587 55.437 0 100.537 45.924 100.537 102.373 0 .995.148 1.984.44 2.936l17.252 56.17z"/><path id="XMLID_585_" d="m166.652 117.521 12.128 4.31c1.203 3.606 2.657 7.12 4.352 10.516l-5.521 11.614c-1.816 3.821-1.031 8.372 1.96 11.364l17.104 17.106c2.991 2.991 7.541 3.777 11.364 1.961l11.615-5.521c3.397 1.695 6.911 3.148 10.518 4.352l4.313 12.129c1.417 3.986 5.19 6.649 9.422 6.649h24.19c4.232 0 8.006-2.664 9.423-6.652l4.309-12.127c3.606-1.204 7.121-2.658 10.518-4.352l11.612 5.521c3.824 1.818 8.373 1.031 11.364-1.96l17.106-17.104c2.992-2.992 3.777-7.543 1.961-11.365l-5.521-11.615c1.694-3.396 3.148-6.911 4.353-10.518l12.129-4.313c3.986-1.417 6.649-5.191 6.649-9.422v-24.19c0-4.232-2.664-8.006-6.651-9.423l-12.128-4.31c-1.203-3.606-2.657-7.12-4.352-10.516l5.521-11.614c1.816-3.821 1.031-8.372-1.96-11.364l-17.104-17.107c-2.991-2.991-7.542-3.778-11.364-1.961l-11.615 5.521c-3.397-1.695-6.911-3.148-10.518-4.352l-4.314-12.128c-1.417-3.986-5.19-6.65-9.422-6.65h-24.19c-4.232 0-8.006 2.664-9.423 6.652l-4.309 12.127c-3.606 1.203-7.12 2.657-10.518 4.352l-11.613-5.521c-3.82-1.818-8.372-1.031-11.363 1.96l-17.106 17.104c-2.992 2.992-3.777 7.543-1.961 11.365l5.521 11.615c-1.694 3.396-3.148 6.911-4.353 10.518l-12.129 4.313c-3.986 1.417-6.649 5.191-6.649 9.422v24.19c0 4.233 2.665 8.007 6.652 9.424zm13.348-26.556 10.262-3.649c3.12-1.109 5.488-3.691 6.325-6.895 1.416-5.422 3.563-10.611 6.382-15.424 1.673-2.857 1.824-6.357.402-9.347l-4.669-9.822 7.125-7.125 9.821 4.669c2.989 1.42 6.488 1.271 9.346-.402 4.816-2.82 10.006-4.967 15.426-6.382 3.205-.837 5.787-3.207 6.896-6.328l3.646-10.26h10.073l3.649 10.262c1.109 3.12 3.692 5.489 6.896 6.325 5.419 1.415 10.608 3.562 15.423 6.381 2.857 1.675 6.358 1.823 9.347.403l9.822-4.669 7.124 7.125-4.668 9.822c-1.422 2.99-1.271 6.49.402 9.347 2.818 4.813 4.966 10.002 6.382 15.424.837 3.205 3.207 5.787 6.327 6.896l10.261 3.646v10.074l-10.262 3.649c-3.12 1.109-5.488 3.691-6.325 6.895-1.416 5.422-3.563 10.611-6.382 15.424-1.673 2.857-1.824 6.357-.402 9.347l4.669 9.822-7.125 7.124-9.82-4.668c-2.991-1.421-6.49-1.271-9.348.402-4.815 2.82-10.005 4.967-15.425 6.382-3.205.837-5.787 3.207-6.896 6.328l-3.645 10.259h-10.073l-3.649-10.262c-1.109-3.12-3.692-5.489-6.896-6.325-5.419-1.415-10.608-3.562-15.423-6.381-2.857-1.674-6.358-1.823-9.347-.403l-9.822 4.669-7.124-7.125 4.668-9.822c1.422-2.99 1.271-6.49-.402-9.347-2.818-4.813-4.966-10.002-6.382-15.424-.837-3.205-3.207-5.787-6.327-6.896l-10.262-3.645z"/><path id="XMLID_588_" d="m256 138c23.159 0 42-18.841 42-42s-18.841-42-42-42-42 18.841-42 42 18.841 42 42 42zm0-64c12.131 0 22 9.869 22 22s-9.869 22-22 22-22-9.869-22-22 9.87-22 22-22z"/><path id="XMLID_589_" d="m86.908 190.999c1.331.599 2.726.883 4.097.883 3.814 0 7.459-2.195 9.125-5.899 9.843-21.875 24.574-41.885 42.604-57.866 4.134-3.664 4.514-9.984.851-14.117-3.665-4.134-9.984-4.513-14.116-.85-20.131 17.844-36.583 40.191-47.576 64.627-2.269 5.036-.022 10.956 5.015 13.222z"/><path id="XMLID_590_" d="m369.268 128.116c18.029 15.981 32.761 35.991 42.604 57.866 1.667 3.705 5.31 5.899 9.125 5.899 1.371 0 2.766-.284 4.097-.883 5.037-2.266 7.283-8.186 5.017-13.223-10.993-24.436-27.445-46.783-47.576-64.627-4.133-3.664-10.453-3.283-14.116.85s-3.285 10.455.849 14.118z"/><path id="XMLID_591_" d="m172.241 319.02c-2.641 0-5.21 1.061-7.07 2.92-1.86 1.86-2.93 4.44-2.93 7.07 0 2.64 1.069 5.22 2.93 7.08s4.439 2.92 7.07 2.92c2.63 0 5.21-1.06 7.069-2.92 1.86-1.87 2.931-4.44 2.931-7.08 0-2.63-1.07-5.21-2.931-7.07-1.859-1.859-4.439-2.92-7.069-2.92z"/><path id="XMLID_592_" d="m124.241 319.01c-2.631 0-5.21 1.07-7.07 2.93s-2.93 4.44-2.93 7.07c0 2.64 1.069 5.21 2.93 7.07 1.86 1.87 4.439 2.93 7.07 2.93 2.63 0 5.21-1.06 7.069-2.93 1.86-1.86 2.931-4.431 2.931-7.07 0-2.63-1.07-5.2-2.931-7.07-1.859-1.859-4.439-2.93-7.069-2.93z"/><path id="XMLID_593_" d="m76.241 319.01c-2.631 0-5.21 1.07-7.07 2.93-1.87 1.87-2.93 4.44-2.93 7.08 0 2.62 1.06 5.2 2.93 7.061 1.86 1.87 4.439 2.93 7.07 2.93 2.63 0 5.21-1.06 7.069-2.93 1.86-1.86 2.931-4.44 2.931-7.061 0-2.64-1.07-5.21-2.931-7.08-1.859-1.859-4.439-2.93-7.069-2.93z"/><path id="XMLID_594_" d="m339.76 319.01c-2.63 0-5.21 1.07-7.07 2.93-1.859 1.86-2.93 4.44-2.93 7.07 0 2.64 1.07 5.21 2.93 7.07 1.86 1.87 4.44 2.93 7.07 2.93s5.21-1.06 7.07-2.93c1.859-1.86 2.93-4.431 2.93-7.07 0-2.63-1.07-5.21-2.93-7.07-1.86-1.859-4.44-2.93-7.07-2.93z"/><path id="XMLID_595_" d="m387.76 319.01c-2.63 0-5.21 1.07-7.07 2.93-1.859 1.86-2.93 4.44-2.93 7.07 0 2.64 1.07 5.21 2.93 7.07 1.86 1.859 4.44 2.93 7.07 2.93s5.21-1.07 7.07-2.93c1.859-1.86 2.93-4.44 2.93-7.07s-1.07-5.2-2.93-7.07c-1.86-1.859-4.44-2.93-7.07-2.93z"/><path id="XMLID_596_" d="m442.831 336.09c1.859-1.87 2.93-4.44 2.93-7.08 0-2.63-1.07-5.2-2.93-7.07-1.86-1.859-4.44-2.93-7.07-2.93s-5.21 1.07-7.07 2.93c-1.859 1.87-2.93 4.44-2.93 7.07s1.07 5.21 2.93 7.08c1.86 1.86 4.44 2.92 7.07 2.92s5.209-1.059 7.07-2.92z"/><path id="XMLID_597_" d="m394.831 211.52c-1.86-1.86-4.431-2.92-7.07-2.92-2.63 0-5.21 1.06-7.07 2.92-1.859 1.87-2.93 4.44-2.93 7.08 0 2.63 1.07 5.21 2.93 7.07s4.44 2.93 7.07 2.93 5.21-1.07 7.07-2.93c1.859-1.87 2.93-4.44 2.93-7.07-.001-2.63-1.071-5.21-2.93-7.08z"/></g></g></svg>