<svg id="Capa_1" enable-background="new 0 0 512 512" height="512" viewBox="0 0 512 512" width="512" xmlns="http://www.w3.org/2000/svg"><g id="XMLID_2118_"><g id="XMLID_329_"><path id="XMLID_358_" d="m90.75 54h-6.75v-12c0-23.159-18.841-42-42-42s-42 18.841-42 42v296c0 1.602.386 3.111 1.056 4.454h-.01l30.954 62.229v15.65c0 5.523 4.477 10 10 10s10-4.477 10-10v-15.65l30.954-62.23h-.01c.67-1.342 1.056-2.851 1.056-4.453v-264h6.75c7.306 0 13.25 5.944 13.25 13.25v105.75c0 5.523 4.477 10 10 10s10-4.477 10-10v-105.75c0-18.334-14.916-33.25-33.25-33.25zm-48.75 325.879-15.857-31.879h31.714zm22-51.879h-44v-160h44zm0-180h-44v-74h44zm-22-128c12.131 0 22 9.869 22 22v12h-44v-12c0-12.131 9.869-22 22-22z"/><path id="XMLID_362_" d="m373.29 190h-149.49c-5.523 0-10 4.477-10 10s4.477 10 10 10h149.49c5.523 0 10-4.477 10-10s-4.477-10-10-10z"/><path id="XMLID_363_" d="m436.326 210c5.523 0 10-4.477 10-10s-4.477-10-10-10h-18.402c-5.523 0-10 4.477-10 10s4.477 10 10 10z"/><path id="XMLID_364_" d="m223.799 266h89.103c5.523 0 10-4.477 10-10s-4.477-10-10-10h-89.103c-5.523 0-10 4.477-10 10s4.477 10 10 10z"/><path id="XMLID_365_" d="m347.537 256c0 5.523 4.477 10 10 10h78.789c5.523 0 10-4.477 10-10s-4.477-10-10-10h-78.789c-5.523 0-10 4.477-10 10z"/><path id="XMLID_366_" d="m223.799 322h89.103c5.523 0 10-4.477 10-10s-4.477-10-10-10h-89.103c-5.523 0-10 4.477-10 10s4.477 10 10 10z"/><path id="XMLID_369_" d="m502 32h-255.875c-2.652 0-5.196 1.054-7.071 2.929l-88 88c-1.875 1.875-2.929 4.419-2.929 7.071v145c0 5.523 4.477 10 10 10s10-4.477 10-10v-135h78c5.523 0 10-4.477 10-10v-78h235.875v440h-323.875v-127c0-5.523-4.477-10-10-10s-10 4.477-10 10v137c0 5.523 4.477 10 10 10h343.875c5.523 0 10-4.477 10-10v-460c0-5.523-4.477-10-10-10zm-265.875 88h-53.858l53.858-53.858z"/><path id="XMLID_450_" d="m258.066 458c24.409 0 44.267-19.858 44.267-44.267s-19.858-44.267-44.267-44.267-44.267 19.858-44.267 44.267 19.858 44.267 44.267 44.267zm0-68.534c13.381 0 24.267 10.886 24.267 24.267s-10.886 24.267-24.267 24.267-24.267-10.886-24.267-24.267 10.887-24.267 24.267-24.267z"/><path id="XMLID_451_" d="m362.055 399.382c2.731 0 5.299 1.064 7.23 2.996 11.786 11.785 30.961 11.785 42.746 0l31.365-31.366c3.905-3.905 3.905-10.237 0-14.142s-10.237-3.905-14.142 0l-31.365 31.365c-3.988 3.987-10.475 3.987-14.461 0-5.709-5.709-13.299-8.854-21.373-8.854-8.073 0-15.664 3.144-21.373 8.853l-8.753 8.753c-3.905 3.905-3.905 10.237 0 14.143 1.953 1.953 4.512 2.929 7.071 2.929s5.119-.976 7.071-2.929l8.753-8.753c1.932-1.931 4.5-2.995 7.231-2.995z"/><path id="XMLID_452_" d="m336.62 435c-2.63 0-5.21 1.07-7.07 2.93s-2.93 4.44-2.93 7.07 1.07 5.21 2.93 7.07 4.44 2.93 7.07 2.93 5.21-1.07 7.07-2.93 2.93-4.44 2.93-7.07-1.07-5.21-2.93-7.07-4.44-2.93-7.07-2.93z"/><path id="XMLID_453_" d="m374.333 455h64.372c5.523 0 10-4.477 10-10s-4.477-10-10-10h-64.372c-5.523 0-10 4.477-10 10s4.478 10 10 10z"/><path id="XMLID_454_" d="m165.2 327.07c1.86-1.86 2.92-4.44 2.92-7.07s-1.06-5.21-2.92-7.07c-1.87-1.86-4.44-2.93-7.08-2.93-2.63 0-5.2 1.07-7.07 2.93-1.86 1.86-2.92 4.44-2.92 7.07s1.06 5.21 2.92 7.07c1.87 1.86 4.44 2.93 7.07 2.93 2.64 0 5.21-1.07 7.08-2.93z"/></g></g></svg>