<svg id="Capa_1" enable-background="new 0 0 512.091 512.091" height="512" viewBox="0 0 512.091 512.091" width="512" xmlns="http://www.w3.org/2000/svg"><g id="XMLID_848_"><g id="XMLID_1088_"><path id="XMLID_1129_" d="m471.758 151.852 37.358-37.359c2.859-2.86 3.715-7.161 2.168-10.898-1.548-3.736-5.194-6.173-9.239-6.173h-97.39c-2.24 0-4.398.759-6.146 2.123-7.549-20.568-19.507-39.351-35.161-55.004-46.435-46.437-117.009-57.791-175.61-28.256-4.932 2.486-6.915 8.499-4.429 13.431 2.485 4.932 8.497 6.915 13.431 4.43 50.873-25.643 112.148-15.782 152.467 24.538 15.815 15.814 27.291 35.296 33.432 56.615l-25.642 25.642c-5.461-50.88-48.652-90.635-100.96-90.635-55.993 0-101.547 45.554-101.547 101.547s45.554 101.547 101.547 101.547c52.308 0 95.499-39.755 100.96-90.635l25.644 25.645c-6.14 21.316-17.624 40.802-33.434 56.613-24.886 24.887-57.975 38.592-93.169 38.592-35.195 0-68.283-13.706-93.17-38.592-40.317-40.318-50.18-101.588-24.54-152.464 2.486-4.932.503-10.945-4.429-13.431-4.934-2.485-10.945-.502-13.431 4.43-29.533 58.601-18.178 129.171 28.257 175.606 1.702 1.702 3.44 3.356 5.208 4.967l-14.62 25.322c-4.273 7.402-5.409 16.026-3.197 24.282 2.213 8.256 7.508 15.157 14.91 19.431 4.931 2.847 10.402 4.301 15.948 4.301 2.779 0 5.577-.366 8.334-1.104 8.257-2.212 15.157-7.507 19.431-14.91l14.523-25.156c14.915 4.812 30.651 7.318 46.775 7.318s31.86-2.506 46.774-7.318l14.523 25.156c5.921 10.255 16.698 15.994 27.767 15.994 5.425 0 10.92-1.379 15.946-4.281 15.281-8.822 20.535-28.432 11.713-43.713l-14.62-25.322c1.768-1.611 3.506-3.264 5.208-4.967 15.649-15.65 27.613-34.436 35.162-55.003 1.748 1.363 3.905 2.122 6.145 2.122h97.39c4.045 0 7.691-2.437 9.239-6.173 1.547-3.737.691-8.038-2.168-10.898zm-294.34 159.6c-3.309 5.731-10.661 7.7-16.393 4.393-5.73-3.309-7.701-10.662-4.393-16.393l13.116-22.717c6.611 4.589 13.544 8.623 20.742 12.074zm178.023-12c3.309 5.73 1.338 13.084-4.393 16.393-5.731 3.308-13.085 1.337-16.393-4.393l-13.073-22.643c7.198-3.451 14.13-7.485 20.742-12.074zm53.357-182.03h69.105l-24.43 24.43h-69.105l15.937-15.937c.382-.328.736-.683 1.063-1.062zm-152.762 115.977c-44.965 0-81.547-36.582-81.547-81.547s36.582-81.547 81.547-81.547c41.578 0 75.963 31.285 80.913 71.546h-35.601c-4.587-20.797-23.156-36.408-45.312-36.408-25.59 0-46.409 20.819-46.409 46.409s20.819 46.409 46.409 46.409c22.157 0 40.726-15.612 45.313-36.41h35.6c-4.948 40.262-39.334 71.548-80.913 71.548zm4.25-71.548h20.188c-3.95 9.618-13.413 16.41-24.438 16.41-14.563 0-26.409-11.847-26.409-26.409s11.847-26.409 26.409-26.409c11.024 0 20.487 6.792 24.437 16.408h-20.187c-5.522 0-10 4.477-10 10s4.478 10 10 10zm148.512 24.431-24.43-24.43h69.105l24.43 24.43z"/><path id="XMLID_1196_" d="m459.473 409.739h-2.72c4.448-6.849 7.044-15.008 7.044-23.766v-12.308c0-24.133-19.633-43.766-43.766-43.766s-43.767 19.633-43.767 43.766v12.308c0 8.758 2.596 16.917 7.044 23.766h-2.72c-17.487 0-32.997 8.593-42.556 21.769-9.559-13.177-25.068-21.769-42.555-21.769h-2.72c4.448-6.849 7.044-15.008 7.044-23.766v-12.308c0-24.133-19.634-43.766-43.767-43.766s-43.766 19.633-43.766 43.766v12.308c0 8.758 2.596 16.917 7.044 23.766h-2.72c-17.487 0-32.997 8.593-42.556 21.769-9.559-13.177-25.068-21.769-42.555-21.769h-2.72c4.448-6.849 7.044-15.008 7.044-23.766v-12.308c0-24.133-19.634-43.766-43.767-43.766s-43.766 19.633-43.766 43.766v12.308c0 8.758 2.596 16.917 7.044 23.766h-2.72c-28.979 0-52.556 23.576-52.556 52.556v39.796c0 5.523 4.478 10 10 10h491.983c5.522 0 10-4.477 10-10v-39.796c.006-28.98-23.57-52.556-52.55-52.556zm-63.208-23.766v-12.308c0-13.104 10.662-23.766 23.767-23.766s23.766 10.662 23.766 23.766v12.308c0 13.104-10.661 23.766-23.766 23.766s-23.767-10.661-23.767-23.766zm-163.994 0v-12.308c0-13.104 10.661-23.766 23.766-23.766 13.104 0 23.767 10.662 23.767 23.766v12.308c0 13.104-10.662 23.766-23.767 23.766s-23.766-10.661-23.766-23.766zm-163.994 0v-12.308c0-13.104 10.661-23.766 23.766-23.766s23.767 10.662 23.767 23.766v12.308c0 13.104-10.662 23.766-23.767 23.766s-23.766-10.661-23.766-23.766zm-48.232 76.322c0-17.951 14.604-32.556 32.556-32.556h78.884c17.951 0 32.555 14.604 32.555 32.556v29.796h-143.995zm163.994 29.796v-29.796c0-17.951 14.604-32.556 32.556-32.556h78.884c17.951 0 32.555 14.604 32.555 32.556v29.796zm307.99 0h-143.995v-29.796c0-17.951 14.604-32.556 32.556-32.556h78.884c17.951 0 32.556 14.604 32.556 32.556v29.796z"/><path id="XMLID_1208_" d="m155.795 61.611c2.63 0 5.21-1.07 7.069-2.93 1.86-1.86 2.931-4.44 2.931-7.07s-1.07-5.21-2.931-7.07c-1.859-1.86-4.439-2.93-7.069-2.93s-5.21 1.07-7.07 2.93-2.93 4.44-2.93 7.07 1.069 5.21 2.93 7.07 4.44 2.93 7.07 2.93z"/></g></g></svg>