<svg id="Capa_1" enable-background="new 0 0 512 512" height="512" viewBox="0 0 512 512" width="512" xmlns="http://www.w3.org/2000/svg"><g id="XMLID_1689_"><g id="XMLID_467_"><path id="XMLID_470_" d="m194.127 143.817h51.873v20h-34.383c-5.522 0-10 4.477-10 10s4.478 10 10 10h34.383v10c0 5.523 4.478 10 10 10s10-4.477 10-10v-10h158.751v10c0 5.523 4.478 10 10 10s10-4.477 10-10v-20c0-5.523-4.478-10-10-10h-168.751v-20h52.127c5.522 0 10-4.477 10-10v-20c0-22.359-16.039-41.035-37.214-45.148 4.067-6.386 6.434-13.955 6.434-22.071v-5.378c0-22.729-18.492-41.22-41.22-41.22s-41.22 18.491-41.22 41.219v5.378c0 8.116 2.367 15.685 6.434 22.071-21.175 4.113-37.214 22.789-37.214 45.148v20c0 5.524 4.477 10.001 10 10.001zm40.78-102.598c0-11.7 9.52-21.219 21.22-21.219s21.22 9.519 21.22 21.219v5.378c0 11.701-9.52 21.22-21.22 21.22s-21.22-9.519-21.22-21.22zm-30.78 72.598c0-14.336 11.663-26 26-26h52c14.337 0 26 11.664 26 26v10h-104z"/><path id="XMLID_474_" d="m15.075 367.635h52v20h-34.775c-5.522 0-10 4.477-10 10v20c0 5.523 4.478 10 10 10s10-4.477 10-10v-10h69.55v10c0 5.523 4.478 10 10 10s10-4.477 10-10v-20c0-5.523-4.478-10-10-10h-34.775v-20h52c5.522 0 10-4.477 10-10v-20c0-22.359-16.039-41.035-37.214-45.148 4.067-6.386 6.434-13.955 6.434-22.071v-5.378c0-22.729-18.491-41.219-41.22-41.219s-41.22 18.491-41.22 41.219v5.378c0 8.116 2.367 15.685 6.434 22.071-21.175 4.113-37.214 22.788-37.214 45.148v20c0 5.523 4.478 10 10 10zm40.78-102.598c0-11.7 9.52-21.219 21.22-21.219s21.22 9.519 21.22 21.219v5.378c0 11.701-9.52 21.22-21.22 21.22s-21.22-9.519-21.22-21.22zm-30.78 72.598c0-14.336 11.663-26 26-26h52c14.337 0 26 11.664 26 26v10h-104z"/><path id="XMLID_788_" d="m194.127 367.635h51.873v20h-34.774c-5.522 0-10 4.477-10 10v20c0 5.523 4.478 10 10 10s10-4.477 10-10v-10h69.549v10c0 5.523 4.478 10 10 10s10-4.477 10-10v-20c0-5.523-4.478-10-10-10h-34.775v-20h52.127c5.522 0 10-4.477 10-10v-20c0-22.359-16.039-41.035-37.214-45.148 4.067-6.386 6.434-13.955 6.434-22.071v-5.378c0-22.729-18.491-41.219-41.22-41.219s-41.22 18.491-41.22 41.219v5.378c0 8.116 2.367 15.685 6.434 22.071-21.175 4.113-37.214 22.789-37.214 45.148v20c0 5.523 4.477 10 10 10zm40.78-102.598c0-11.7 9.52-21.219 21.22-21.219s21.22 9.519 21.22 21.219v5.378c0 11.701-9.52 21.22-21.22 21.22s-21.22-9.519-21.22-21.22zm-30.78 72.598c0-14.336 11.663-26 26-26h52c14.337 0 26 11.664 26 26v10h-104z"/><path id="XMLID_1200_" d="m393.705 265.037v5.378c0 8.116 2.367 15.685 6.434 22.071-21.175 4.113-37.214 22.789-37.214 45.148v20c0 5.523 4.478 10 10 10h52v20h-34.775c-5.522 0-10 4.477-10 10v20c0 5.523 4.478 10 10 10s10-4.477 10-10v-10h69.55v10c0 5.523 4.478 10 10 10s10-4.477 10-10v-20c0-5.523-4.478-10-10-10h-34.775v-20h52c5.522 0 10-4.477 10-10v-20c0-22.359-16.039-41.035-37.214-45.148 4.067-6.386 6.434-13.955 6.434-22.071v-5.378c0-22.729-18.491-41.219-41.22-41.219s-41.22 18.49-41.22 41.219zm93.22 72.598v10h-104v-10c0-14.336 11.663-26 26-26h52c14.337 0 26 11.663 26 26zm-30.78-72.598v5.378c0 11.701-9.52 21.22-21.22 21.22s-21.22-9.519-21.22-21.22v-5.378c0-11.7 9.52-21.219 21.22-21.219s21.22 9.518 21.22 21.219z"/><path id="XMLID_1214_" d="m32.3 447.399c-17.811 0-32.3 14.49-32.3 32.3s14.489 32.301 32.3 32.301 32.301-14.49 32.301-32.3-14.491-32.301-32.301-32.301zm0 44.601c-6.782 0-12.3-5.518-12.3-12.3s5.518-12.3 12.3-12.3 12.301 5.518 12.301 12.3-5.519 12.3-12.301 12.3z"/><path id="XMLID_1236_" d="m121.85 447.399c-17.811 0-32.3 14.49-32.3 32.3s14.489 32.3 32.3 32.3 32.301-14.49 32.301-32.3-14.491-32.3-32.301-32.3zm0 44.601c-6.782 0-12.3-5.518-12.3-12.3s5.518-12.3 12.3-12.3 12.301 5.518 12.301 12.3-5.519 12.3-12.301 12.3z"/><path id="XMLID_1258_" d="m211.399 447.399c-17.811 0-32.3 14.49-32.3 32.3s14.489 32.3 32.3 32.3 32.301-14.49 32.301-32.3-14.49-32.3-32.301-32.3zm0 44.601c-6.782 0-12.3-5.518-12.3-12.3s5.518-12.3 12.3-12.3 12.301 5.518 12.301 12.3-5.518 12.3-12.301 12.3z"/><path id="XMLID_1345_" d="m300.949 447.399c-17.811 0-32.3 14.49-32.3 32.3s14.489 32.3 32.3 32.3 32.3-14.49 32.3-32.3-14.489-32.3-32.3-32.3zm0 44.601c-6.782 0-12.3-5.518-12.3-12.3s5.518-12.3 12.3-12.3 12.3 5.518 12.3 12.3-5.518 12.3-12.3 12.3z"/><path id="XMLID_1358_" d="m390.324 447.399c-17.811 0-32.3 14.49-32.3 32.3s14.489 32.3 32.3 32.3 32.301-14.49 32.301-32.3-14.49-32.3-32.301-32.3zm0 44.601c-6.782 0-12.3-5.518-12.3-12.3s5.518-12.3 12.3-12.3 12.301 5.518 12.301 12.3-5.519 12.3-12.301 12.3z"/><path id="XMLID_1364_" d="m479.7 447.399c-17.811 0-32.301 14.49-32.301 32.3s14.491 32.301 32.301 32.301 32.3-14.49 32.3-32.3-14.489-32.301-32.3-32.301zm0 44.601c-6.782 0-12.301-5.518-12.301-12.3s5.519-12.3 12.301-12.3 12.3 5.518 12.3 12.3-5.518 12.3-12.3 12.3z"/><path id="XMLID_1370_" d="m77.25 203.817c5.522 0 10-4.477 10-10v-10h34.375c5.522 0 10-4.477 10-10s-4.478-10-10-10h-44.375c-5.522 0-10 4.477-10 10v20c0 5.523 4.478 10 10 10z"/><path id="XMLID_1371_" d="m166.63 163.82c-2.64 0-5.21 1.06-7.08 2.93-1.86 1.86-2.92 4.44-2.92 7.07s1.06 5.21 2.92 7.07c1.87 1.86 4.44 2.93 7.08 2.93 2.63 0 5.2-1.07 7.06-2.93 1.87-1.86 2.931-4.44 2.931-7.07s-1.061-5.21-2.931-7.07c-1.86-1.87-4.43-2.93-7.06-2.93z"/></g></g></svg>