<svg id="Capa_1" enable-background="new 0 0 512 512" height="512" viewBox="0 0 512 512" width="512" xmlns="http://www.w3.org/2000/svg"><g id="XMLID_2697_"><g id="XMLID_280_"><path id="XMLID_281_" d="m290.35 162.405c-3.905-3.905-10.237-3.905-14.143 0-2.956 2.957-7.769 2.957-10.725 0-3.905-3.905-10.237-3.905-14.143 0s-3.905 10.237 0 14.143c5.377 5.377 12.441 8.066 19.505 8.066s14.127-2.688 19.505-8.066c3.906-3.905 3.906-10.237.001-14.143z"/><path id="XMLID_284_" d="m500.171 332.798c-12.779-12.66-32.089-14.882-47.171-6.709v-25.526c0-36.393-29.607-66-66-66h-70.963v-18.96c25.825-15.353 43.17-43.535 43.17-75.696v-45.644c9.071-10.698 14.558-24.525 14.558-39.616v-44.647c0-5.523-4.477-10-10-10h-119.209c-33.831 0-61.354 27.523-61.354 61.354v78.554c0 32.03 17.204 60.114 42.854 75.508v19.147h-71.056c-36.393 0-66 29.607-66 66v25.527c-4.347 2.447-8.538 5.18-12.514 8.222l-2.393 1.831c-1.817-2.506-4.76-4.143-8.093-4.143h-56c-5.523 0-10 4.477-10 10v160c0 5.523 4.477 10 10 10h56c4.838 0 8.872-3.436 9.799-8h70.979c5.523 0 10-4.477 10-10s-4.477-10-10-10h-70.778v-124.132l12.641-9.673c15.244-11.665 34.209-18.088 53.404-18.088 23.435 0 46.291 9.591 62.708 26.313l17.887 18.219c1.88 1.915 4.452 2.994 7.136 2.994h83.387c10.944 0 19.848 8.907 19.848 19.854 0 10.946-8.905 19.852-19.852 19.852l-131.326.002c-5.523 0-10 4.477-10 10s4.478 10 10 10h136.347c30.66 0 59.483-11.941 81.161-33.625l58.626-58.643c7.738-7.739 20.356-7.769 28.129-.068 3.795 3.76 5.893 8.773 5.905 14.116.013 5.342-2.061 10.365-5.839 14.143l-65.518 65.518c-27.871 27.87-64.924 43.218-104.337 43.218h-79.529c-5.523 0-10 4.477-10 10s4.477 10 10 10h79.529c44.754 0 86.831-17.429 118.479-49.075l65.518-65.518c7.567-7.568 11.721-17.63 11.696-28.332s-4.226-20.745-11.829-28.277zm-444.171 159.202h-36v-140h36zm190.056-221.041 17.967 17.81c1.949 1.932 4.495 2.898 7.04 2.898 2.547 0 5.094-.967 7.043-2.901l17.963-17.823v88.69h-50.013zm-42.854-209.605c0-22.803 18.551-41.354 41.354-41.354h109.209v34.646c0 22.802-18.551 41.354-41.354 41.354h-109.209zm0 78.554v-23.908h109.209c9.603 0 18.694-2.222 26.795-6.172v30.08c0 37.496-30.506 68-68.002 68s-68.002-30.505-68.002-68zm68.003 88c8.621 0 16.953-1.252 24.832-3.573v18.466l-24.978 24.782-25.003-24.785v-18.557c7.972 2.381 16.412 3.667 25.149 3.667zm-129.161 84.199c-11.236 0-22.401 1.813-33.044 5.241v-16.785c0-25.365 20.636-46 46-46h20.095l-15.673 15.673c-3.905 3.905-3.905 10.237 0 14.142l17.851 17.85-12.37 12.369c-7.476-1.635-15.141-2.49-22.859-2.49zm76.981 32.301c-9.456-9.632-20.653-17.335-32.846-22.801l12.307-12.307c3.905-3.905 3.905-10.237 0-14.143l-17.851-17.85 22.744-22.744h22.676v97.006zm97.044 15.343v-105.188h22.676l22.744 22.744-17.851 17.85c-1.875 1.875-2.929 4.419-2.929 7.071s1.054 5.196 2.929 7.071l18.862 18.862-17.349 47.589c-6.726-9.042-17.189-15.137-29.082-15.999zm69.127 31.825c-9.35 9.353-20.313 16.506-32.259 21.209l30.537-83.762c1.332-3.653.425-7.747-2.324-10.497l-16.299-16.298 17.851-17.85c1.875-1.875 2.929-4.419 2.929-7.071s-1.054-5.196-2.929-7.071l-15.673-15.673h19.971c25.364 0 46 20.636 46 46v43.196z"/><path id="XMLID_766_" d="m191.78 484c-2.63 0-5.21 1.07-7.07 2.93s-2.93 4.44-2.93 7.07 1.07 5.21 2.93 7.07 4.44 2.93 7.07 2.93 5.21-1.07 7.07-2.93 2.93-4.44 2.93-7.07-1.07-5.21-2.93-7.07-4.44-2.93-7.07-2.93z"/></g></g></svg>