<svg id="Capa_1" enable-background="new 0 0 512 512" height="512" viewBox="0 0 512 512" width="512" xmlns="http://www.w3.org/2000/svg"><g id="XMLID_2339_"><g id="XMLID_101_"><path id="XMLID_3906_" d="m396 292h-86.265v-42.911c24.323-17.007 40.265-45.216 40.265-77.081v-75.594c0-29.696-23.068-54.088-52.223-56.242-10.517-23.639-34.213-40.172-61.712-40.172h-92.399c-5.523 0-10 4.477-10 10v50.187c0 22.627 11.199 42.674 28.333 54.933v56.888c0 31.635 15.709 59.668 39.735 76.713v43.279h-85.734c-49.626 0-90 40.374-90 90v120c0 5.523 4.477 10 10 10h174.735c5.523 0 10-4.477 10-10s-4.477-10-10-10h-84.735v-92.981c0-5.523-4.477-10-10-10s-10 4.477-10 10v92.981h-60v-110c0-38.598 31.402-70 70-70h70v74.941c0 7.857 4.688 14.881 11.945 17.895 2.416 1.003 4.944 1.491 7.45 1.491 5.021 0 9.944-1.96 13.657-5.659l4.475-4.459 25.402 25.402c1.953 1.953 4.512 2.929 7.071 2.929s5.119-.976 7.071-2.929l25.402-25.402 4.475 4.459c3.713 3.7 8.636 5.659 13.657 5.659 2.505 0 5.035-.488 7.45-1.491 7.256-3.014 11.945-10.038 11.945-17.895v-74.941h70c38.598 0 70 31.402 70 70v110h-60v-92.981c0-5.523-4.477-10-10-10s-10 4.477-10 10v92.981h-85.265c-5.523 0-10 4.477-10 10s4.477 10 10 10h175.265c5.523 0 10-4.477 10-10v-120c0-49.626-40.374-90-90-90zm-66-195.586v11.293h-26.414v-40.187c0-2.09-.109-4.155-.296-6.197 15.381 4.259 26.71 18.373 26.71 35.091zm-176.333-76.414h82.399c26.203 0 47.521 21.317 47.521 47.52v40.187h-82.399c-26.203 0-47.521-21.317-47.521-47.52zm28.333 152.008v-47.094c6.086 1.807 12.522 2.793 19.187 2.793h128.813v44.301c0 40.804-33.196 74-74 74s-74-33.196-74-74zm74 94c11.885 0 23.258-2.223 33.735-6.265v42.119l-33.735 33.735-34.265-34.265v-41.79c10.622 4.172 22.18 6.466 34.265 6.466zm-50 47.873 35.845 35.845-35.845 35.712zm50 86.516-18.305-18.305 18.305-18.237 18.305 18.237zm50-14.959-35.845-35.712 35.845-35.845z"/><path id="XMLID_3913_" d="m256 492c-2.63 0-5.21 1.07-7.07 2.93s-2.93 4.44-2.93 7.07 1.07 5.21 2.93 7.07 4.44 2.93 7.07 2.93 5.21-1.07 7.07-2.93 2.93-4.44 2.93-7.07-1.07-5.21-2.93-7.07-4.44-2.93-7.07-2.93z"/><path id="XMLID_3914_" d="m259.167 219.003c8.369 0 16.236-3.259 22.154-9.177 3.905-3.905 3.905-10.237 0-14.142s-10.237-3.905-14.142 0c-2.14 2.14-4.985 3.318-8.011 3.318s-5.871-1.179-8.011-3.318c-3.905-3.905-10.237-3.905-14.142 0s-3.906 10.237 0 14.142c5.916 5.919 13.783 9.177 22.152 9.177z"/></g></g></svg>