<svg id="Capa_1" enable-background="new 0 0 512 512" height="512" viewBox="0 0 512 512" width="512" xmlns="http://www.w3.org/2000/svg"><g id="XMLID_1816_"><g id="XMLID_599_"><path id="XMLID_617_" d="m501.677 10.322c-7.107-7.108-16.934-10.847-26.973-10.262-43.311 2.53-85.825 11.642-126.364 27.084-5.161 1.966-7.751 7.743-5.785 12.904 1.965 5.161 7.746 7.752 12.904 5.786 38.629-14.714 79.142-23.397 120.411-25.808 4.411-.251 8.546 1.319 11.665 4.438s4.695 7.262 4.438 11.666c-5.787 99.079-47.623 192.293-117.802 262.471l-100.172 100.172-160.772-160.772 100.172-100.172c19.453-19.455 40.974-36.975 63.963-52.074 4.616-3.032 5.901-9.232 2.869-13.848s-9.23-5.902-13.848-2.869c-22.159 14.553-43.011 31.255-62.082 49.698-19.084-8.532-39.435-12.866-60.608-12.866-33.06 0-64.369 10.604-90.546 30.665-25.337 19.416-44.076 46.931-52.765 77.475-1.094 3.845.207 7.971 3.308 10.494 1.821 1.482 4.059 2.243 6.313 2.243 1.582 0 3.174-.375 4.634-1.14 28.8-15.069 61.951-18.608 93.016-10.316l-15.639 15.639c-1.875 1.875-2.929 4.419-2.929 7.071s1.054 5.196 2.929 7.071l39.104 39.103c-34.185 5.429-62.735 31.637-69.688 67.283l-21.175 108.557c-.637 3.265.392 6.633 2.744 8.985 1.894 1.894 4.444 2.929 7.071 2.929.636 0 1.277-.061 1.914-.185l108.557-21.173c35.646-6.954 61.86-35.494 67.286-69.686l39.101 39.101c1.953 1.952 4.512 2.929 7.071 2.929s5.118-.977 7.071-2.929l15.639-15.639c8.292 31.065 4.753 64.217-10.316 93.016-1.854 3.541-1.419 7.846 1.104 10.946 1.929 2.371 4.796 3.69 7.758 3.689.911 0 1.831-.124 2.735-.382 30.544-8.688 58.059-27.428 77.477-52.765 20.061-26.177 30.664-57.486 30.664-90.546 0-21.179-4.336-41.534-12.872-60.622 70.656-73.04 112.745-168.768 118.682-270.389.585-10.033-3.156-19.865-10.264-26.972zm-473.998 188.107c21.299-43.624 66.268-72.56 116.014-72.56 15.681 0 30.836 2.744 45.226 8.154l-65.269 65.269c-31.226-10.927-64.93-11.129-95.971-.863zm141.42 180.797-45.127 8.802 8.802-45.127c2.98-15.285 16.788-25.829 32.081-24.987l29.233 29.233c.844 15.286-9.705 29.097-24.989 32.079zm-12.386 51.714-93.985 18.331 18.331-93.985c5.718-29.313 30.56-50.272 59.317-52.032-13.676 6.854-24.098 19.743-27.233 35.819l-11.644 59.698c-.637 3.265.392 6.633 2.744 8.985 1.894 1.894 4.445 2.929 7.071 2.929.637 0 1.277-.061 1.914-.185l59.698-11.644c16.078-3.136 28.965-13.558 35.818-27.236-1.758 28.759-22.717 53.603-52.031 59.32zm156.858 53.379c10.267-31.039 10.064-64.743-.864-95.969l65.27-65.269c5.41 14.39 8.154 29.545 8.154 45.226-.001 49.743-28.942 94.713-72.56 116.012z"/><path id="XMLID_623_" d="m193.613 236.387c0 45.215 36.785 82 82 82s82-36.785 82-82-36.785-82-82-82-82 36.785-82 82zm144 0c0 34.187-27.813 62-62 62s-62-27.813-62-62 27.813-62 62-62 62 27.813 62 62z"/><path id="XMLID_648_" d="m233.613 236.387c0 23.159 18.841 42 42 42s42-18.841 42-42-18.841-42-42-42-42 18.841-42 42zm64 0c0 12.131-9.869 22-22 22s-22-9.869-22-22 9.869-22 22-22 22 9.869 22 22z"/><path id="XMLID_651_" d="m418.037 157.565c8.494-8.494 13.172-19.788 13.172-31.801s-4.678-23.307-13.172-31.801c-8.495-8.494-19.788-13.172-31.802-13.172-12.013 0-23.306 4.678-31.801 13.172-8.494 8.495-13.172 19.789-13.172 31.801 0 12.013 4.678 23.307 13.172 31.801 8.495 8.494 19.788 13.172 31.801 13.172 12.014 0 23.307-4.678 31.802-13.172zm-56.774-31.802c0-6.67 2.598-12.942 7.314-17.659 4.717-4.717 10.988-7.315 17.658-7.315 6.671 0 12.942 2.598 17.659 7.315s7.314 10.988 7.314 17.659-2.598 12.942-7.314 17.659c-4.717 4.717-10.988 7.315-17.659 7.315-6.67 0-12.941-2.598-17.658-7.315-4.716-4.717-7.314-10.988-7.314-17.659z"/><path id="XMLID_652_" d="m310.77 64.769c2.63 0 5.21-1.07 7.07-2.93s2.93-4.44 2.93-7.07-1.069-5.21-2.93-7.07c-1.86-1.86-4.44-2.93-7.07-2.93s-5.21 1.07-7.069 2.93c-1.86 1.86-2.931 4.44-2.931 7.07 0 2.64 1.07 5.21 2.931 7.07 1.859 1.86 4.439 2.93 7.069 2.93z"/></g></g></svg>