<svg id="Capa_1" enable-background="new 0 0 512 512" height="512" viewBox="0 0 512 512" width="512" xmlns="http://www.w3.org/2000/svg"><g id="XMLID_1508_"><g id="XMLID_376_"><path id="XMLID_405_" d="m512 166v-104c0-23.159-18.841-42-42-42h-182c-23.159 0-42 18.841-42 42v50h-176c-27.57 0-50 22.43-50 50v246h-10c-5.522 0-10 4.477-10 10v24c0 27.57 22.43 50 50 50h412c27.57 0 50-22.43 50-50v-24c0-5.523-4.478-10-10-10h-10v-206.241c11.99-7.404 20-20.662 20-35.759zm-224-126h182c12.131 0 22 9.869 22 22v104c0 12.131-9.869 22-22 22h-93.91c-2.652 0-5.195 1.054-7.071 2.929l-21.056 21.056v-13.985c0-5.523-4.478-10-10-10h-49.963c-12.079 0-21.912-9.786-21.996-21.846.001-.052.008-.102.008-.154 0-.078-.01-.154-.012-.232v-103.768c0-12.131 9.869-22 22-22zm59.962 368v-31.716c0-28.969-23.568-52.537-52.537-52.537h-2.71c4.444-6.846 7.037-14.999 7.037-23.751v-12.303c0-24.125-19.627-43.752-43.752-43.752s-43.752 19.627-43.752 43.752v12.303c0 8.752 2.593 16.906 7.037 23.751h-2.71c-28.969 0-52.537 23.568-52.537 52.537v31.716h-80.038v-232h163.212c4.499 18.345 21.074 32 40.788 32h39.963v28.127c0 4.044 2.437 7.691 6.173 9.239 1.237.513 2.537.762 3.825.762 2.603 0 5.16-1.017 7.073-2.929l35.198-35.199h47.768v200zm-115.714-108.004v-12.303c0-13.097 10.655-23.752 23.752-23.752s23.752 10.655 23.752 23.752v12.303c0 13.097-10.655 23.751-23.752 23.751s-23.752-10.655-23.752-23.751zm63.177 43.751c17.941 0 32.537 14.596 32.537 32.537v31.716h-143.924v-31.716c0-17.941 14.596-32.537 32.537-32.537zm-255.425-181.747c0-16.542 13.458-30 30-30h176v24h-172c-5.522 0-10 4.477-10 10v242h-24zm452 280c0 16.542-13.458 30-30 30h-412c-16.542 0-30-13.458-30-30v-14h472zm-44-34v-200h24v200z"/><path id="XMLID_413_" d="m331 123c2.63 0 5.21-1.07 7.069-2.93 1.86-1.86 2.931-4.44 2.931-7.07s-1.07-5.21-2.931-7.07c-1.859-1.86-4.43-2.93-7.069-2.93-2.641 0-5.21 1.07-7.07 2.93s-2.93 4.44-2.93 7.07 1.069 5.21 2.93 7.07 4.44 2.93 7.07 2.93z"/><path id="XMLID_427_" d="m379 123c2.63 0 5.21-1.07 7.069-2.93 1.86-1.86 2.931-4.44 2.931-7.07s-1.07-5.21-2.931-7.07c-1.859-1.86-4.439-2.93-7.069-2.93s-5.21 1.07-7.07 2.93-2.93 4.44-2.93 7.07 1.069 5.21 2.93 7.07 4.44 2.93 7.07 2.93z"/><path id="XMLID_437_" d="m427 123c2.63 0 5.21-1.07 7.069-2.93 1.86-1.86 2.931-4.44 2.931-7.07s-1.07-5.21-2.931-7.07c-1.859-1.86-4.439-2.93-7.069-2.93s-5.21 1.07-7.07 2.93-2.93 4.44-2.93 7.07 1.069 5.21 2.93 7.07 4.44 2.93 7.07 2.93z"/></g></g></svg>