<svg id="Capa_1" enable-background="new 0 0 512 512" height="512" viewBox="0 0 512 512" width="512" xmlns="http://www.w3.org/2000/svg"><g id="XMLID_2450_"><g id="XMLID_119_"><path id="XMLID_628_" d="m512 256c0-52.118-15.568-102.271-45.022-145.038-3.132-4.548-9.359-5.696-13.907-2.564-4.549 3.133-5.696 9.359-2.563 13.908 12.064 17.518 21.594 36.384 28.467 56.156h-48.125c-4.113-15.548-17.854-27.216-34.431-28.214-13.805-51.044-36.881-91.873-65.187-118.011 20.611 6.924 40.264 16.722 58.461 29.255 4.547 3.13 10.773 1.985 13.907-2.564 3.133-4.548 1.985-10.775-2.563-13.908-42.766-29.452-92.919-45.02-145.037-45.02-68.38 0-132.667 26.628-181.02 74.981-48.351 48.352-74.98 112.639-74.98 181.019 0 71.602 30.042 139.896 82.613 188.328-.39 2.576-.595 5.213-.595 7.896v49.776c0 5.522 4.478 10 10 10h327.963c5.522 0 10-4.478 10-10v-49.775c0-2.683-.205-5.32-.595-7.896 52.572-48.433 82.614-116.726 82.614-188.329zm-20 0c0 19.684-2.479 39.092-7.219 57.829h-54.015c-3.097-11.336-11.315-20.577-22.011-25.061.822-10.827 1.245-21.813 1.245-32.768s-.423-21.941-1.245-32.767c10.788-4.523 19.06-13.883 22.094-25.353h53.945c4.764 18.832 7.206 38.321 7.206 58.12zm-236 165.524c-9.551-13.214-25.08-21.837-42.594-21.837h-2.711c4.444-6.846 7.038-15 7.038-23.752v-12.303c0-14.474-7.069-27.322-17.931-35.291 4.998-3.012 10.764-4.655 16.773-4.655h78.85c6.021 0 11.782 1.642 16.775 4.653-10.862 7.969-17.933 20.818-17.933 35.292v12.303c0 8.752 2.593 16.906 7.038 23.752h-2.711c-17.514.002-33.043 8.624-42.594 21.838zm-174.766-107.695h-54.015c-4.74-18.737-7.219-38.146-7.219-57.829 0-19.946 2.498-39.317 7.178-57.829h54.056c3.096 11.336 11.315 20.577 22.01 25.062-.822 10.825-1.244 21.809-1.244 32.767 0 10.955.423 21.941 1.245 32.768-10.695 4.484-18.914 13.725-22.011 25.061zm164.766-293.158v157.5h-91.455c-2.835-10.378-9.966-18.993-19.357-23.817 10.651-38.866 27.117-71.864 47.877-95.814 19.025-21.951 40.604-34.888 62.935-37.869zm111.455 177.5c3.956 14.485 16.283 25.543 31.439 27.634.732 9.98 1.106 20.1 1.106 30.195s-.374 20.216-1.106 30.196c-18.487 2.55-32.775 18.441-32.783 37.617-5.519-2.517-11.642-3.932-18.092-3.932-1.507 0-2.996.077-4.464.226-9.902-10.479-23.546-16.419-38.13-16.419h-2.71c4.444-6.846 7.038-15 7.038-23.752v-12.303c0-20.684-14.432-38.048-33.752-42.585v-26.877zm-125.207 81.765v-12.303c0-13.097 10.655-23.751 23.752-23.751s23.752 10.655 23.752 23.751v12.303c0 13.097-10.655 23.752-23.752 23.752s-23.752-10.656-23.752-23.752zm13.752-54.888c-19.32 4.536-33.752 21.901-33.752 42.585v12.303c0 8.752 2.593 16.906 7.038 23.752h-2.71c-14.555 0-28.225 5.947-38.129 16.419-1.468-.149-2.958-.226-4.464-.226-6.451 0-12.574 1.415-18.092 3.932-.008-19.176-14.296-35.066-32.783-37.617-.734-9.98-1.108-20.101-1.108-30.196 0-10.097.373-20.217 1.104-30.195 15.157-2.09 27.484-13.148 31.44-27.634h91.456zm-128.11-54.876c9.925 0 18 8.075 18 18s-8.075 18-18 18-18-8.075-18-18 8.075-18 18-18zm0 135.657c9.925 0 18 8.075 18 18s-8.075 18-18 18-18-8.075-18-18 8.075-18 18-18zm32.339 70.107v-12.303c0-13.097 10.655-23.752 23.752-23.752s23.751 10.655 23.751 23.752v12.303c0 13.097-10.654 23.752-23.751 23.752s-23.752-10.656-23.752-23.752zm164.039 0v-12.303c0-13.097 10.654-23.752 23.751-23.752s23.752 10.655 23.752 23.752v12.303c0 13.097-10.655 23.752-23.752 23.752s-23.751-10.656-23.751-23.752zm61.842-52.107c0-9.925 8.075-18 18-18s18 8.075 18 18-8.075 18-18 18-18-8.075-18-18zm36-135.657c0 9.925-8.075 18-18 18s-18-8.075-18-18 8.075-18 18-18 18 8.075 18 18zm-35.297-33.818c-9.392 4.824-16.522 13.439-19.357 23.817h-91.456v-157.5c22.332 2.981 43.912 15.919 62.938 37.872 20.758 23.95 37.225 56.947 47.875 95.811zm-196.142-122.025c-28.262 26.142-51.3 66.935-65.088 117.92-16.472.992-30.141 12.522-34.348 27.923h-48.032c23.983-68.457 78.665-122.61 147.468-145.843zm-147.436 301.5h48c4.402 16.116 19.163 28 36.655 28 4.388 0 8.601-.757 12.525-2.131-.116 1.297-.186 2.608-.186 3.935v12.303c0 8.752 2.593 16.906 7.038 23.752h-2.711c-18.587 0-34.938 9.711-44.28 24.318-25.848-25.513-45.244-56.432-57.041-90.177zm212.708 158.171h-143.924v-39.775c0-17.941 14.596-32.537 32.537-32.537h78.851c17.941 0 32.537 14.596 32.537 32.537v39.775zm164.038 0h-143.924v-39.775c0-17.941 14.596-32.537 32.537-32.537h78.851c17.941 0 32.537 14.596 32.537 32.537v39.775zm-32.537-92.312h-2.711c4.444-6.846 7.038-15 7.038-23.752v-12.303c0-1.327-.069-2.638-.186-3.935 3.925 1.375 8.137 2.131 12.525 2.131 17.492 0 32.253-11.884 36.655-28h48c-11.797 33.745-31.194 64.665-57.041 90.177-9.341-14.607-25.692-24.318-44.28-24.318z"/><path id="XMLID_647_" d="m429.95 92.05c2.63 0 5.21-1.06 7.069-2.93 1.86-1.86 2.931-4.44 2.931-7.07s-1.07-5.21-2.931-7.07c-1.859-1.86-4.439-2.93-7.069-2.93-2.641 0-5.21 1.07-7.07 2.93s-2.93 4.44-2.93 7.07 1.069 5.21 2.93 7.07c1.86 1.87 4.43 2.93 7.07 2.93z"/></g></g></svg>