<svg id="Capa_1" enable-background="new 0 0 512 512" height="512" viewBox="0 0 512 512" width="512" xmlns="http://www.w3.org/2000/svg"><g id="XMLID_1104_"><g id="XMLID_384_"><path id="XMLID_387_" d="m459.463 335.688h-2.711c4.444-6.846 7.037-14.999 7.037-23.751v-12.303c0-24.125-19.627-43.751-43.751-43.751-1.507 0-2.996.077-4.464.226-9.902-10.479-23.545-16.42-38.13-16.42h-2.711c4.444-6.846 7.037-14.999 7.037-23.751v-12.303c0-24.125-19.627-43.751-43.752-43.751-1.541 0-3.064.082-4.564.239-9.895-10.411-23.503-16.313-38.029-16.313h-2.71c4.444-6.846 7.038-14.999 7.038-23.752v-12.303c-.001-24.128-19.628-43.755-43.753-43.755s-43.752 19.627-43.752 43.752v12.303c0 8.753 2.593 16.906 7.038 23.752h-2.71c-14.525 0-28.134 5.902-38.03 16.313-1.501-.156-3.023-.239-4.564-.239-24.125 0-43.752 19.627-43.752 43.751v12.303c0 8.752 2.593 16.906 7.037 23.751h-2.711c-14.584 0-28.228 5.941-38.13 16.42-1.468-.149-2.957-.226-4.464-.226-24.124 0-43.751 19.627-43.751 43.751v12.303c0 8.752 2.593 16.906 7.037 23.751h-2.711c-28.969.003-52.537 23.571-52.537 52.54v49.775c0 5.523 4.478 10 10 10h201c5.522 0 10-4.477 10-10s-4.478-10-10-10h-26.962v-39.775c0-17.941 14.596-32.538 32.537-32.538h78.85c17.941 0 32.537 14.596 32.537 32.538v39.775h-26.962c-5.522 0-10 4.477-10 10s4.478 10 10 10h201c5.522 0 10-4.477 10-10v-49.775c0-28.969-23.568-52.537-52.537-52.537zm-15.674-36.055v12.303c0 13.097-10.654 23.751-23.751 23.751s-23.752-10.655-23.752-23.751v-12.303c0-13.097 10.655-23.751 23.752-23.751s23.751 10.654 23.751 23.751zm-82.018-96v12.303c0 13.097-10.655 23.751-23.752 23.751s-23.751-10.655-23.751-23.751v-12.303c0-13.097 10.654-23.751 23.751-23.751s23.752 10.654 23.752 23.751zm-129.523-83.578v-12.303c0-13.097 10.655-23.752 23.752-23.752s23.752 10.655 23.752 23.752v12.303c0 13.097-10.655 23.752-23.752 23.752s-23.752-10.656-23.752-23.752zm-15.673 43.752h78.85c5.982 0 11.71 1.623 16.684 4.6-10.811 7.974-17.841 20.792-17.841 35.226v12.303c0 8.752 2.593 16.906 7.037 23.751h-2.711c-14.553 0-28.224 5.946-38.129 16.42-1.468-.149-2.958-.226-4.464-.226-1.5 0-2.981.076-4.442.224-9.909-10.468-23.656-16.418-38.151-16.418h-2.711c4.444-6.846 7.037-14.999 7.037-23.751v-12.303c0-14.434-7.03-27.253-17.841-35.226 4.973-2.977 10.701-4.6 16.682-4.6zm63.177 148.129c0 13.097-10.655 23.751-23.752 23.751s-23.752-10.655-23.752-23.751v-12.303c0-13.097 10.655-23.751 23.752-23.751s23.752 10.655 23.752 23.751zm-129.523-96v-12.303c0-13.097 10.655-23.751 23.752-23.751s23.751 10.655 23.751 23.751v12.303c0 13.097-10.654 23.751-23.751 23.751s-23.752-10.654-23.752-23.751zm-82.018 96v-12.303c0-13.097 10.654-23.751 23.751-23.751s23.752 10.655 23.752 23.751v12.303c0 13.097-10.655 23.751-23.752 23.751s-23.751-10.654-23.751-23.751zm95.714 116.064h-143.925v-39.775c0-17.941 14.596-32.538 32.537-32.538h78.851c17.941 0 32.537 14.596 32.537 32.538zm10.056-70.476c-9.551-13.214-25.08-21.837-42.594-21.837h-2.711c4.444-6.846 7.037-14.999 7.037-23.751v-12.303c0-14.474-7.07-27.323-17.933-35.292 4.993-3.011 10.754-4.654 16.775-4.654h78.851c5.985 0 11.766 1.639 16.774 4.654-10.862 7.969-17.932 20.817-17.932 35.291v12.303c0 8.752 2.593 16.906 7.037 23.751h-2.71c-17.513.002-33.042 8.624-42.594 21.838zm121.444-21.836h-2.71c4.444-6.846 7.037-14.999 7.037-23.751v-12.303c0-14.474-7.069-27.322-17.931-35.29 4.998-3.013 10.764-4.655 16.773-4.655h78.851c6.021 0 11.782 1.642 16.775 4.653-10.863 7.969-17.934 20.818-17.934 35.292v12.303c0 8.752 2.593 16.906 7.037 23.751h-2.711c-17.514 0-33.042 8.623-42.594 21.837-9.551-13.215-25.08-21.837-42.593-21.837zm196.575 92.312h-143.925v-39.775c0-17.941 14.596-32.538 32.537-32.538h78.851c17.941 0 32.537 14.596 32.537 32.538z"/><path id="XMLID_447_" d="m255.939 428c-2.63 0-5.21 1.07-7.069 2.93-1.86 1.86-2.931 4.44-2.931 7.07s1.07 5.21 2.931 7.07c1.859 1.86 4.439 2.93 7.069 2.93s5.21-1.07 7.07-2.93c1.87-1.86 2.93-4.44 2.93-7.07s-1.06-5.21-2.93-7.07c-1.86-1.86-4.429-2.93-7.07-2.93z"/></g></g></svg>