<svg id="Capa_1" enable-background="new 0 0 511.996 511.996" height="512" viewBox="0 0 511.996 511.996" width="512" xmlns="http://www.w3.org/2000/svg"><g id="XMLID_762_"><g id="XMLID_1545_"><g id="XMLID_2319_"><g id="XMLID_196_"><path id="XMLID_210_" d="m509.067 439.061-96.724-96.724 3.606-3.606c3.905-3.905 3.905-10.237 0-14.142s-10.237-3.905-14.143 0l-3.606 3.606-27.722-27.722c17.637-29.707 27.782-64.359 27.782-101.341 0-109.801-89.329-199.13-199.13-199.13s-199.13 89.329-199.13 199.13 89.33 199.13 199.131 199.13c36.983 0 71.636-10.146 101.344-27.784l27.721 27.721-3.481 3.481c-3.905 3.905-3.905 10.237 0 14.142 1.953 1.953 4.512 2.929 7.071 2.929s5.119-.977 7.071-2.929l3.481-3.481 96.724 96.724c1.953 1.953 4.512 2.929 7.071 2.929s5.118-.977 7.071-2.929l55.863-55.862c1.875-1.875 2.929-4.419 2.929-7.071s-1.054-5.196-2.929-7.071zm-489.067-239.929c0-98.772 80.357-179.13 179.131-179.13 98.772 0 179.13 80.357 179.13 179.13s-80.357 179.13-179.13 179.13c-98.774 0-179.131-80.357-179.131-179.13zm297.466 160.053c15.878-11.77 29.949-25.842 41.719-41.72l24.873 24.872-41.72 41.72zm128.667 128.667-89.652-89.653 41.72-41.72 89.653 89.652z"/><path id="XMLID_215_" d="m301.753 96.509c-43.666-43.665-110.325-54.934-165.877-28.038-4.971 2.407-7.05 8.387-4.644 13.358 2.408 4.972 8.391 7.05 13.358 4.643 47.896-23.188 105.37-13.471 143.02 24.18 47.595 47.595 48.75 124.303 3.482 173.323v-7.627c0-28.969-23.568-52.537-52.537-52.537h-2.711c4.444-6.846 7.038-14.999 7.038-23.752v-12.303c0-24.125-19.627-43.752-43.751-43.752-24.125 0-43.752 19.627-43.752 43.752v12.303c0 8.753 2.593 16.906 7.038 23.752h-2.711c-28.969 0-52.537 23.568-52.537 52.537v7.639c-34.75-37.647-43.154-93.015-20.696-139.397 2.406-4.971.328-10.952-4.644-13.358-4.968-2.407-10.951-.329-13.358 4.643-26.896 55.551-15.629 122.214 28.037 165.881 28.293 28.293 65.458 42.439 102.623 42.439 37.164 0 74.329-14.146 102.622-42.439 56.586-56.588 56.586-148.66 0-205.247zm-126.374 103.55v-12.303c0-13.097 10.655-23.752 23.752-23.752s23.751 10.655 23.751 23.752v12.303c0 13.097-10.654 23.752-23.751 23.752s-23.752-10.656-23.752-23.752zm23.751 124.145c-25.23-.002-50.464-7.572-71.962-22.698v-25.158c0-17.941 14.596-32.537 32.537-32.537h78.851c17.941 0 32.537 14.596 32.537 32.537v25.16c-21.498 15.129-46.725 22.698-71.963 22.696z"/><path id="XMLID_217_" d="m103.578 113.578c2.63 0 5.21-1.07 7.069-2.93 1.86-1.86 2.931-4.43 2.931-7.07 0-2.63-1.07-5.21-2.931-7.07-1.859-1.86-4.439-2.93-7.069-2.93s-5.21 1.07-7.07 2.93-2.93 4.44-2.93 7.07c0 2.64 1.069 5.22 2.93 7.07 1.86 1.86 4.44 2.93 7.07 2.93z"/></g></g></g></g></svg>