<svg id="Capa_1" enable-background="new 0 0 512.012 512.012" height="512" viewBox="0 0 512.012 512.012" width="512" xmlns="http://www.w3.org/2000/svg"><g id="XMLID_923_"><g id="XMLID_49_"><path id="XMLID_505_" d="m486.698 433.012-60.932-105.538c7.939-9.01 12.556-20.755 12.557-33.327.001-8.128 3.166-15.771 8.913-21.519 14.472-14.475 18.763-36.048 10.932-54.959-3.11-7.509-3.11-15.781 0-23.291 7.831-18.911 3.54-40.484-10.932-54.959-5.747-5.748-8.912-13.39-8.913-21.519-.002-20.469-12.223-38.757-31.132-46.592-7.509-3.111-13.358-8.96-16.47-16.469-7.834-18.91-26.123-31.13-46.592-31.132-8.128-.001-15.77-3.166-21.518-8.913-14.476-14.472-36.05-18.763-54.959-10.931-7.509 3.111-15.78 3.111-23.291 0-18.909-7.83-40.483-3.54-54.96 10.933-5.747 5.747-13.389 8.912-21.518 8.913-20.469.002-38.757 12.223-46.592 31.132-3.111 7.509-8.96 13.358-16.469 16.47-18.91 7.834-31.13 26.123-31.132 46.592-.001 8.128-3.166 15.77-8.913 21.518-14.472 14.475-18.763 36.048-10.932 54.959 3.11 7.509 3.11 15.781 0 23.291-7.831 18.911-3.54 40.484 10.932 54.958 5.747 5.748 8.912 13.391 8.913 21.519.001 12.572 4.618 24.317 12.557 33.327l-60.932 105.537c-2.022 3.503-1.735 7.879.727 11.088 2.462 3.207 6.613 4.616 10.522 3.571l77.766-20.838 20.837 77.767c1.047 3.907 4.344 6.799 8.354 7.326.438.058.875.086 1.308.086 3.538 0 6.856-1.88 8.657-5l56.217-97.37c4.942 1.583 10.103 2.405 15.31 2.405 6.504 0 13.073-1.264 19.348-3.862 7.511-3.108 15.783-3.109 23.291 0 11.299 4.679 23.546 5.028 34.664 1.466l56.211 97.361c1.802 3.12 5.12 5 8.657 5 .434 0 .871-.028 1.308-.086 4.01-.527 7.307-3.419 8.354-7.326l20.837-77.767 77.766 20.838c3.907 1.046 8.059-.362 10.522-3.571 2.462-3.209 2.749-7.585.727-11.088zm-338.461 43.092-17.177-64.105c-.687-2.563-2.362-4.746-4.659-6.072-2.296-1.326-5.024-1.687-7.588-.999l-64.106 17.177 47.623-82.486c.819.392 1.646.77 2.492 1.121 7.509 3.111 13.358 8.961 16.47 16.469 7.834 18.91 26.123 31.13 46.592 31.133 8.128.001 15.77 3.166 21.518 8.912.919.919 1.875 1.783 2.848 2.619zm127.066-86.397c-12.442-5.151-26.148-5.152-38.594 0-11.412 4.726-24.431 2.137-33.167-6.597-9.524-9.523-22.188-14.769-35.657-14.77-12.353-.002-23.39-7.376-28.118-18.788-5.156-12.442-14.848-22.134-27.29-27.29-11.412-4.729-18.787-15.766-18.788-28.117-.001-13.469-5.247-26.132-14.77-35.657-8.733-8.735-11.323-21.754-6.597-33.167 5.153-12.444 5.153-26.151 0-38.594-4.726-11.413-2.136-24.432 6.597-33.167 9.523-9.525 14.769-22.188 14.77-35.657.001-12.353 7.376-23.39 18.788-28.118 12.442-5.156 22.134-14.848 27.29-27.291 4.728-11.412 15.765-18.786 28.118-18.788 13.469-.001 26.132-5.247 35.657-14.77 5.837-5.836 13.585-8.928 21.491-8.928 3.925 0 7.889.763 11.676 2.331 12.444 5.153 26.15 5.153 38.595 0 11.413-4.726 24.432-2.136 33.167 6.597 9.524 9.523 22.188 14.769 35.657 14.77 12.353.001 23.39 7.376 28.118 18.788 5.156 12.442 14.848 22.134 27.291 27.29 11.412 4.728 18.786 15.765 18.788 28.118.001 13.469 5.247 26.132 14.77 35.657 8.733 8.735 11.323 21.754 6.597 33.167-5.153 12.444-5.153 26.15 0 38.595 4.726 11.412 2.136 24.431-6.597 33.166-9.523 9.525-14.769 22.188-14.77 35.657-.001 12.352-7.376 23.389-18.788 28.117-12.442 5.156-22.134 14.848-27.29 27.29-4.728 11.412-15.765 18.786-28.118 18.788-13.469.001-26.132 5.246-35.657 14.77-8.738 8.735-21.755 11.324-33.169 6.598zm117.897 15.22c-2.563-.688-5.292-.328-7.588.999-2.297 1.326-3.973 3.51-4.659 6.072l-17.177 64.105-44.006-76.219c.974-.836 1.922-1.714 2.842-2.632 5.747-5.746 13.389-8.911 21.518-8.912 20.469-.003 38.757-12.223 46.592-31.132 3.111-7.509 8.96-13.358 16.47-16.47.846-.351 1.674-.729 2.492-1.121l47.623 82.486z"/><path id="XMLID_510_" d="m397.751 206.024c0-59.759-37.792-113.414-94.039-133.514-5.203-1.859-10.924.852-12.782 6.052-1.858 5.201.851 10.924 6.052 12.782 48.311 17.263 80.769 63.35 80.769 114.68 0 28.263-9.682 54.306-25.901 74.99-3.665-26.697-26.611-47.333-54.299-47.333h-3.847c4.963-7.295 7.869-16.097 7.869-25.566v-12.965c0-25.125-20.441-45.566-45.566-45.566s-45.566 20.441-45.566 45.566v12.964c0 9.469 2.906 18.271 7.869 25.566h-3.847c-27.688 0-50.634 20.637-54.299 47.333-16.219-20.684-25.901-46.727-25.901-74.99 0-51.331 32.459-97.417 80.77-114.681 5.201-1.858 7.91-7.581 6.052-12.782-1.859-5.201-7.581-7.909-12.782-6.052-56.248 20.1-94.04 73.755-94.04 133.515 0 78.158 63.586 141.745 141.745 141.745s141.743-63.586 141.743-141.744zm-167.311 2.091v-12.965c0-14.097 11.469-25.566 25.566-25.566s25.566 11.469 25.566 25.566v12.964c0 14.097-11.469 25.566-25.566 25.566-14.097.001-25.566-11.468-25.566-25.565zm-50.803 92.647v-12.258c0-19.202 15.622-34.824 34.824-34.824h83.089c19.202 0 34.824 15.622 34.824 34.824v12.258c-20.901 16.881-47.472 27.007-76.369 27.007s-55.467-10.126-76.368-27.007z"/><path id="XMLID_512_" d="m256.006 84.278c2.63 0 5.21-1.07 7.07-2.93s2.93-4.44 2.93-7.07-1.07-5.21-2.93-7.07-4.44-2.93-7.07-2.93-5.21 1.07-7.07 2.93-2.93 4.44-2.93 7.07 1.07 5.21 2.93 7.07 4.44 2.93 7.07 2.93z"/></g></g></svg>