<svg id="Capa_1" enable-background="new 0 0 512 512" height="512" viewBox="0 0 512 512" width="512" xmlns="http://www.w3.org/2000/svg"><g id="XMLID_786_"><g id="XMLID_31_"><path id="XMLID_58_" d="m470 54h-146v-4c0-27.57-22.43-50-50-50h-224c-27.57 0-50 22.43-50 50v412c0 27.57 22.43 50 50 50h224c27.57 0 50-22.43 50-50v-172h41.424v28.127c0 4.045 2.437 7.691 6.173 9.239 1.237.512 2.536.761 3.824.761 2.603 0 5.161-1.016 7.074-2.929l35.198-35.198h52.307c23.159 0 42-18.841 42-42v-152c0-23.159-18.841-42-42-42zm-420-34h224c16.542 0 30 13.458 30 30v4h-284v-4c0-16.542 13.458-30 30-30zm224 472h-224c-16.542 0-30-13.458-30-30v-30h284v30c0 16.542-13.458 30-30 30zm30-80h-284v-338h232.242c-3.954 6.403-6.242 13.938-6.242 22v152c0 23.159 18.841 42 42 42h16zm188-164c0 12.131-9.869 22-22 22h-56.449c-2.652 0-5.196 1.054-7.071 2.929l-21.056 21.056v-13.985c0-5.522-4.477-10-10-10h-87.424c-12.131 0-22-9.869-22-22v-152c0-12.131 9.869-22 22-22h182c12.131 0 22 9.869 22 22z"/><path id="XMLID_62_" d="m162 452c-2.63 0-5.21 1.069-7.07 2.93-1.86 1.86-2.93 4.44-2.93 7.07s1.07 5.21 2.93 7.069c1.86 1.86 4.44 2.931 7.07 2.931s5.21-1.07 7.07-2.931c1.86-1.859 2.93-4.439 2.93-7.069s-1.07-5.21-2.93-7.07-4.44-2.93-7.07-2.93z"/><path id="XMLID_63_" d="m238.695 283.82c-9.218-15.966-29.707-21.455-45.669-12.236l-7.302 4.216-36.048-62.438 7.302-4.215c15.965-9.217 21.454-29.704 12.237-45.669l-19.256-33.352c-9.217-15.965-29.704-21.454-45.669-12.237-37.614 21.716-50.547 69.985-28.831 107.599l11.928 20.661c2.76 4.782 8.877 6.421 13.66 3.66s6.422-8.877 3.66-13.66l-11.927-20.661c-7.849-13.594-9.934-29.432-5.871-44.594 4.063-15.163 13.787-27.835 27.382-35.684 3.108-1.793 6.728-2.269 10.192-1.342 3.466.929 6.362 3.151 8.156 6.258l19.256 33.352c1.794 3.107 2.271 6.727 1.342 10.192-.928 3.466-3.151 6.362-6.258 8.156l-15.962 9.215c-2.297 1.326-3.973 3.51-4.659 6.072-.687 2.562-.327 5.292.999 7.588l46.048 79.758c1.326 2.297 3.51 3.973 6.072 4.659 2.563.688 5.292.327 7.588-.999l15.962-9.216c6.415-3.702 14.646-1.499 18.349 4.916l19.256 33.353c3.703 6.414 1.498 14.646-4.917 18.349-28.064 16.203-64.076 6.553-80.278-21.511l-5.733-9.931c-2.762-4.783-8.877-6.422-13.66-3.66s-6.422 8.877-3.66 13.66l5.733 9.931c14.573 25.242 41.103 39.369 68.347 39.368 13.353 0 26.879-3.395 39.251-10.537 15.964-9.218 21.454-29.704 12.237-45.669z"/><path id="XMLID_237_" d="m413.849 166.669c4.066-6.386 6.434-13.955 6.434-22.071v-5.378c0-22.729-18.491-41.219-41.22-41.219s-41.22 18.491-41.22 41.219v5.378c0 8.116 2.367 15.685 6.434 22.071-21.175 4.113-37.214 22.789-37.214 45.148v24.183c0 5.523 4.477 10 10 10h124c5.523 0 10-4.477 10-10v-24.183c0-22.359-16.039-41.035-37.214-45.148zm-56.005-27.45c0-11.7 9.519-21.219 21.22-21.219s21.22 9.519 21.22 21.219v5.378c0 11.701-9.519 21.22-21.22 21.22s-21.22-9.519-21.22-21.22zm73.219 86.781h-104v-14.183c0-14.336 11.664-26 26-26h52c14.336 0 26 11.664 26 26z"/><path id="XMLID_239_" d="m118.55 270.12c-2.64 0-5.21 1.069-7.07 2.93-1.87 1.86-2.93 4.43-2.93 7.07 0 2.63 1.06 5.21 2.93 7.069 1.86 1.86 4.44 2.931 7.07 2.931s5.21-1.07 7.07-2.931c1.86-1.859 2.93-4.439 2.93-7.069 0-2.641-1.07-5.21-2.93-7.07-1.86-1.861-4.44-2.93-7.07-2.93z"/></g></g></svg>