<svg id="Capa_1" enable-background="new 0 0 512 512" height="512" viewBox="0 0 512 512" width="512" xmlns="http://www.w3.org/2000/svg"><g id="XMLID_2297_"><g id="XMLID_263_"><path id="XMLID_264_" d="m502 0h-492c-5.523 0-10 4.477-10 10v288c0 5.523 4.477 10 10 10h201c5.523 0 10-4.477 10-10s-4.477-10-10-10h-191v-268h472v268h-191c-5.523 0-10 4.477-10 10s4.477 10 10 10h201c5.523 0 10-4.477 10-10v-288c0-5.523-4.477-10-10-10z"/><path id="XMLID_767_" d="m153.457 48c-5.523 0-10 4.477-10 10v8.076c-48.926 5.022-87.217 46.476-87.217 96.706 0 53.606 43.611 97.218 97.217 97.218 50.23 0 91.684-38.292 96.706-87.218h8.076c5.523 0 10-4.477 10-10 .001-63.291-51.49-114.782-114.782-114.782zm10 20.524c44.291 4.667 79.592 39.967 84.259 84.258h-84.259zm-20 17.71v72.407l-51.177 51.177c-10.045-13.035-16.04-29.344-16.04-47.035 0-39.188 29.349-71.628 67.217-76.549zm10 153.766c-17.691 0-34-5.995-47.035-16.04l51.177-51.178h72.406c-4.921 37.868-37.36 67.218-76.548 67.218z"/><path id="XMLID_775_" d="m314.207 236.782h42.896c5.523 0 10-4.477 10-10s-4.477-10-10-10h-42.896c-5.523 0-10 4.477-10 10s4.477 10 10 10z"/><path id="XMLID_831_" d="m448 216.782h-42.896c-5.523 0-10 4.477-10 10s4.477 10 10 10h42.896c5.523 0 10-4.477 10-10s-4.477-10-10-10z"/><path id="XMLID_858_" d="m314.207 172.782h133.793c5.523 0 10-4.477 10-10s-4.477-10-10-10h-133.793c-5.523 0-10 4.477-10 10s4.477 10 10 10z"/><path id="XMLID_861_" d="m314.207 108.782h133.793c5.523 0 10-4.477 10-10s-4.477-10-10-10h-133.793c-5.523 0-10 4.477-10 10s4.477 10 10 10z"/><path id="XMLID_881_" d="m459.436 409.648h-2.72c4.448-6.849 7.044-15.008 7.044-23.766v-12.308c0-24.133-19.633-43.766-43.766-43.766-24.133 0-43.766 19.633-43.766 43.766v12.308c0 8.758 2.596 16.917 7.044 23.766h-2.719c-17.487 0-32.997 8.593-42.556 21.769-9.559-13.177-25.068-21.769-42.555-21.769h-2.72c4.448-6.849 7.044-15.008 7.044-23.766v-12.308c0-24.133-19.633-43.766-43.766-43.766s-43.766 19.633-43.766 43.766v12.308c0 8.758 2.596 16.917 7.044 23.766h-2.72c-17.487 0-32.996 8.593-42.555 21.769-9.559-13.177-25.068-21.769-42.556-21.769h-2.719c4.448-6.849 7.044-15.008 7.044-23.766v-12.308c0-24.133-19.633-43.766-43.766-43.766-24.132 0-43.766 19.633-43.766 43.766v12.308c0 8.758 2.596 16.917 7.044 23.766h-2.72c-28.979 0-52.556 23.576-52.556 52.555v39.797c0 5.523 4.477 10 10 10h491.983c5.523 0 10-4.477 10-10v-39.796c.001-28.979-23.575-52.556-52.555-52.556zm-63.208-23.766v-12.308c0-13.104 10.662-23.766 23.767-23.766 13.104 0 23.766 10.662 23.766 23.766v12.308c0 13.104-10.662 23.766-23.766 23.766s-23.767-10.661-23.767-23.766zm-163.994 0v-12.308c0-13.104 10.662-23.766 23.766-23.766s23.766 10.662 23.766 23.766v12.308c0 13.104-10.662 23.766-23.766 23.766s-23.766-10.661-23.766-23.766zm-163.994 0v-12.308c0-13.104 10.662-23.766 23.766-23.766s23.766 10.662 23.766 23.766v12.308c0 13.104-10.662 23.766-23.767 23.766-13.104 0-23.765-10.661-23.765-23.766zm-48.232 76.322c0-17.951 14.604-32.555 32.556-32.555h78.883c17.951 0 32.556 14.604 32.556 32.555v29.796h-143.995zm163.995 0c0-17.951 14.604-32.555 32.555-32.555h78.884c17.951 0 32.555 14.604 32.555 32.555v29.796h-143.994zm307.989 29.796h-143.995v-29.796c0-17.951 14.604-32.555 32.556-32.555h78.883c17.951 0 32.556 14.604 32.556 32.555z"/><path id="XMLID_922_" d="m256 288c-2.63 0-5.21 1.07-7.07 2.93s-2.93 4.44-2.93 7.07 1.07 5.21 2.93 7.07 4.44 2.93 7.07 2.93 5.21-1.07 7.07-2.93 2.93-4.44 2.93-7.07-1.07-5.21-2.93-7.07-4.44-2.93-7.07-2.93z"/></g></g></svg>