<svg id="Capa_1" enable-background="new 0 0 512 512" height="512" viewBox="0 0 512 512" width="512" xmlns="http://www.w3.org/2000/svg"><g id="XMLID_2498_"><g id="XMLID_1578_"><path id="XMLID_557_" d="m452.333 222.958c0-17.645-14.355-32-32-32s-32 14.355-32 32c0 14.153 9.239 26.181 22 30.391v60.39c0 4.652-2.29 8.77-5.792 11.317-5.521-19.214-23.243-33.317-44.208-33.317h-72v-27.781h20c31.981 0 58-26.018 58-58v-28.979c0-5.523-4.478-10-10-10s-10 4.477-10 10v28.979c0 20.953-17.047 38-38 38h-104c-20.953 0-38-17.047-38-38v-147.958c0-20.953 17.047-38 38-38h104c20.953 0 38 17.047 38 38v28.979c0 5.523 4.478 10 10 10s10-4.477 10-10v-28.979c0-31.981-26.019-58-58-58h-104c-31.981 0-58 26.019-58 58v147.958c0 31.981 26.019 58 58 58h20v27.781h-72c-21.107 0-38.928 14.295-44.319 33.709-3.817-2.503-6.347-6.813-6.347-11.709v-60.39c12.761-4.21 22-16.238 22-30.391 0-17.645-14.355-32-32-32s-32 14.355-32 32c0 14.153 9.239 26.181 22 30.391v60.39c0 15.83 10.874 29.167 25.544 32.935 4.172 21.101 22.815 37.065 45.122 37.065h72v23.886h-31.625c-24.832 0-45.511 18.066-49.62 41.742-13.151 3.976-22.755 16.202-22.755 30.633 0 17.645 14.355 32 32 32s32-14.355 32-32c0-13.75-8.719-25.501-20.918-30.019 3.527-12.869 15.32-22.356 29.293-22.356h53.625v21.984c-12.761 4.21-22 16.239-22 30.391 0 17.645 14.355 32 32 32s32-14.355 32-32c0-14.153-9.239-26.181-22-30.391v-21.984h53.625c13.973 0 25.766 9.487 29.293 22.356-12.199 4.518-20.918 16.269-20.918 30.019 0 17.645 14.355 32 32 32s32-14.355 32-32c0-14.431-9.605-26.657-22.755-30.633-4.108-23.676-24.788-41.742-49.62-41.742h-31.625v-23.886h72c22.376 0 41.063-16.064 45.157-37.263 14.313-4.009 24.843-17.162 24.843-32.737v-60.39c12.761-4.209 22-16.238 22-30.391zm-360.666-12c6.617 0 12 5.383 12 12s-5.383 12-12 12-12-5.383-12-12 5.383-12 12-12zm60.666 281.042c-6.617 0-12-5.383-12-12s5.383-12 12-12 12 5.383 12 12-5.383 12-12 12zm104 0c-6.617 0-12-5.383-12-12s5.383-12 12-12 12 5.383 12 12-5.383 12-12 12zm104 0c-6.617 0-12-5.383-12-12s5.383-12 12-12 12 5.383 12 12-5.383 12-12 12zm-116-228.041h24v27.78h-24zm24 143.666h-24v-23.886h24zm92-43.886h-208c-14.337 0-26-11.663-26-26s11.663-26 26-26h208c14.337 0 26 11.663 26 26s-11.663 26-26 26zm60-128.781c-6.617 0-12-5.383-12-12s5.383-12 12-12 12 5.383 12 12-5.383 12-12 12z"/></g><g id="XMLID_2497_"><path id="XMLID_577_" d="m356.33 141.98c-2.63 0-5.21-1.07-7.07-2.93s-2.93-4.44-2.93-7.07 1.069-5.21 2.93-7.07c1.86-1.86 4.44-2.93 7.07-2.93s5.21 1.07 7.069 2.93c1.87 1.86 2.931 4.44 2.931 7.07s-1.061 5.21-2.931 7.07c-1.859 1.86-4.429 2.93-7.069 2.93z"/></g></g></svg>